<mxfile host="app.diagrams.net" modified="2022-01-15T08:06:08.770Z" agent="5.0 (Windows NT 10.0; Win64; x64) AppleWebKit/537.36 (KHTML, like Gecko) Chrome/92.0.4515.131 Safari/537.36" etag="YGp0aqRQclKbTXOKWOVI" version="16.2.6" type="github">
  <diagram id="8QzUFzPcUCmMM6ad5pbA" name="Page-1">
    <mxGraphModel dx="648" dy="1602" grid="1" gridSize="10" guides="1" tooltips="1" connect="1" arrows="1" fold="1" page="1" pageScale="1" pageWidth="827" pageHeight="1169" math="0" shadow="0">
      <root>
        <mxCell id="0" />
        <mxCell id="1" parent="0" />
        <mxCell id="t0sURCftIjSwmOLmZrCK-31" value="" style="edgeStyle=orthogonalEdgeStyle;rounded=0;orthogonalLoop=1;jettySize=auto;html=1;fontSize=14;fontColor=#000000;" edge="1" parent="1" source="t0sURCftIjSwmOLmZrCK-1" target="t0sURCftIjSwmOLmZrCK-30">
          <mxGeometry relative="1" as="geometry" />
        </mxCell>
        <mxCell id="t0sURCftIjSwmOLmZrCK-1" value="&lt;font style=&quot;font-size: 14px&quot;&gt;&lt;b&gt;sarama&lt;/b&gt;&lt;br&gt;&lt;/font&gt;基于go语言的kafka封装包" style="whiteSpace=wrap;html=1;aspect=fixed;fillColor=#f8cecc;strokeColor=#b85450;" vertex="1" parent="1">
          <mxGeometry x="150" y="90" width="90" height="90" as="geometry" />
        </mxCell>
        <mxCell id="t0sURCftIjSwmOLmZrCK-5" value="" style="edgeStyle=orthogonalEdgeStyle;rounded=0;orthogonalLoop=1;jettySize=auto;html=1;" edge="1" parent="1" source="t0sURCftIjSwmOLmZrCK-3" target="t0sURCftIjSwmOLmZrCK-4">
          <mxGeometry relative="1" as="geometry" />
        </mxCell>
        <mxCell id="t0sURCftIjSwmOLmZrCK-3" value="加载配置文件&lt;br style=&quot;font-size: 15px;&quot;&gt;ini.MapTo()" style="rounded=0;whiteSpace=wrap;html=1;fontSize=15;" vertex="1" parent="1">
          <mxGeometry x="80" y="270" width="120" height="60" as="geometry" />
        </mxCell>
        <mxCell id="t0sURCftIjSwmOLmZrCK-8" value="" style="edgeStyle=orthogonalEdgeStyle;rounded=0;orthogonalLoop=1;jettySize=auto;html=1;" edge="1" parent="1" source="t0sURCftIjSwmOLmZrCK-4" target="t0sURCftIjSwmOLmZrCK-7">
          <mxGeometry relative="1" as="geometry" />
        </mxCell>
        <mxCell id="t0sURCftIjSwmOLmZrCK-44" value="" style="edgeStyle=orthogonalEdgeStyle;rounded=0;orthogonalLoop=1;jettySize=auto;html=1;fontSize=15;fontColor=#000000;" edge="1" parent="1" source="t0sURCftIjSwmOLmZrCK-4" target="t0sURCftIjSwmOLmZrCK-9">
          <mxGeometry relative="1" as="geometry" />
        </mxCell>
        <mxCell id="t0sURCftIjSwmOLmZrCK-4" value="kafka初始化配置&lt;br style=&quot;font-size: 15px;&quot;&gt;kafka.Init()" style="whiteSpace=wrap;html=1;rounded=0;fontSize=15;" vertex="1" parent="1">
          <mxGeometry x="80" y="360" width="120" height="60" as="geometry" />
        </mxCell>
        <mxCell id="t0sURCftIjSwmOLmZrCK-25" value="" style="edgeStyle=orthogonalEdgeStyle;rounded=0;orthogonalLoop=1;jettySize=auto;html=1;fontSize=14;fontColor=#000000;" edge="1" parent="1" source="t0sURCftIjSwmOLmZrCK-7" target="t0sURCftIjSwmOLmZrCK-24">
          <mxGeometry relative="1" as="geometry" />
        </mxCell>
        <mxCell id="t0sURCftIjSwmOLmZrCK-29" value="" style="edgeStyle=orthogonalEdgeStyle;rounded=0;orthogonalLoop=1;jettySize=auto;html=1;fontSize=14;fontColor=#000000;" edge="1" parent="1" source="t0sURCftIjSwmOLmZrCK-7" target="t0sURCftIjSwmOLmZrCK-28">
          <mxGeometry relative="1" as="geometry" />
        </mxCell>
        <mxCell id="t0sURCftIjSwmOLmZrCK-7" value="etcd初始化配置&lt;br&gt;etcd.Init()" style="whiteSpace=wrap;html=1;rounded=0;" vertex="1" parent="1">
          <mxGeometry x="80" y="640" width="120" height="60" as="geometry" />
        </mxCell>
        <mxCell id="t0sURCftIjSwmOLmZrCK-13" value="" style="edgeStyle=orthogonalEdgeStyle;rounded=0;orthogonalLoop=1;jettySize=auto;html=1;fontSize=15;fontColor=default;" edge="1" parent="1" source="t0sURCftIjSwmOLmZrCK-9" target="t0sURCftIjSwmOLmZrCK-12">
          <mxGeometry relative="1" as="geometry" />
        </mxCell>
        <mxCell id="t0sURCftIjSwmOLmZrCK-9" value="&lt;h6 style=&quot;font-size: 1px;&quot;&gt;&lt;font style=&quot;font-size: 1px;&quot;&gt;创建&lt;br style=&quot;font-size: 1px;&quot;&gt;&lt;/font&gt;&lt;font style=&quot;font-size: 1px;&quot;&gt;配置对象&lt;br style=&quot;font-size: 1px;&quot;&gt;&lt;/font&gt;&lt;font style=&quot;font-size: 1px;&quot;&gt;sarama.NewConfig()&lt;/font&gt;&lt;/h6&gt;" style="whiteSpace=wrap;html=1;rounded=0;fontSize=1;fontStyle=0;fillColor=#FFFFFF;strokeColor=#82b366;" vertex="1" parent="1">
          <mxGeometry x="287.5" y="370" width="120" height="40" as="geometry" />
        </mxCell>
        <mxCell id="t0sURCftIjSwmOLmZrCK-53" value="" style="edgeStyle=orthogonalEdgeStyle;rounded=0;orthogonalLoop=1;jettySize=auto;html=1;fontSize=1;fontColor=#000000;" edge="1" parent="1" source="t0sURCftIjSwmOLmZrCK-12">
          <mxGeometry relative="1" as="geometry">
            <mxPoint x="347.48571428571427" y="520" as="targetPoint" />
          </mxGeometry>
        </mxCell>
        <mxCell id="t0sURCftIjSwmOLmZrCK-12" value="&lt;blockquote style=&quot;line-height: 1 ; font-size: 11px&quot;&gt;&lt;span style=&quot;font-family: &amp;#34;consolas&amp;#34; , &amp;#34;courier new&amp;#34; , monospace ; font-size: 11px ; text-align: left ; background-color: rgb(255 , 255 , 255) ; line-height: 0.7&quot;&gt;创建kafka生产者&lt;br style=&quot;font-size: 11px&quot;&gt;&lt;/span&gt;&lt;span style=&quot;font-family: &amp;#34;consolas&amp;#34; , &amp;#34;courier new&amp;#34; , monospace ; font-size: 11px ; text-align: left ; background-color: rgb(255 , 255 , 255) ; line-height: 0.7&quot;&gt;sarama.NewSyncProducer()&lt;/span&gt;&lt;/blockquote&gt;" style="whiteSpace=wrap;html=1;fontSize=1;fillColor=#FFFFFF;strokeColor=#82b366;rounded=0;fontStyle=0;horizontal=1;" vertex="1" parent="1">
          <mxGeometry x="290.5" y="443" width="115" height="50" as="geometry" />
        </mxCell>
        <mxCell id="t0sURCftIjSwmOLmZrCK-15" value="&lt;div style=&quot;font-family: &amp;#34;consolas&amp;#34; , &amp;#34;courier new&amp;#34; , monospace ; font-weight: normal ; font-size: 10px ; line-height: 14px&quot;&gt;&lt;br&gt;&lt;/div&gt;" style="text;whiteSpace=wrap;html=1;fontSize=15;fontColor=#000000;" vertex="1" parent="1">
          <mxGeometry x="350" y="610" width="170" height="30" as="geometry" />
        </mxCell>
        <mxCell id="t0sURCftIjSwmOLmZrCK-23" value="" style="edgeStyle=orthogonalEdgeStyle;rounded=0;orthogonalLoop=1;jettySize=auto;html=1;fontSize=11;fontColor=#000000;" edge="1" parent="1" source="t0sURCftIjSwmOLmZrCK-16" target="t0sURCftIjSwmOLmZrCK-22">
          <mxGeometry relative="1" as="geometry" />
        </mxCell>
        <mxCell id="t0sURCftIjSwmOLmZrCK-16" value="启动协程，kafka生产者发送消息&lt;br&gt;sendMsg()" style="shape=process;whiteSpace=wrap;html=1;backgroundOutline=1;fontSize=1;fillColor=#FFFFFF;strokeColor=#82b366;rounded=0;fontStyle=0;horizontal=1;" vertex="1" parent="1">
          <mxGeometry x="287.5" y="580" width="120" height="60" as="geometry" />
        </mxCell>
        <mxCell id="t0sURCftIjSwmOLmZrCK-22" value="生产者发送消息&lt;br&gt;kafkaClient.SendMessage()" style="whiteSpace=wrap;html=1;fontSize=1;fillColor=#FFFFFF;strokeColor=#82b366;rounded=0;fontStyle=0;" vertex="1" parent="1">
          <mxGeometry x="460" y="580" width="120" height="60" as="geometry" />
        </mxCell>
        <mxCell id="t0sURCftIjSwmOLmZrCK-24" value="&lt;h6 style=&quot;font-size: 1px&quot;&gt;&lt;font style=&quot;font-size: 1px&quot;&gt;创建&lt;br style=&quot;font-size: 1px&quot;&gt;&lt;/font&gt;&lt;font style=&quot;font-size: 1px&quot;&gt;配置对象&lt;br style=&quot;font-size: 1px&quot;&gt;&lt;/font&gt;&lt;font style=&quot;font-size: 1px&quot;&gt;clientv3.New()&lt;/font&gt;&lt;/h6&gt;" style="whiteSpace=wrap;html=1;rounded=0;fontSize=1;fontStyle=0;fillColor=#FFFFFF;strokeColor=#82b366;" vertex="1" parent="1">
          <mxGeometry x="250" y="650" width="120" height="40" as="geometry" />
        </mxCell>
        <mxCell id="t0sURCftIjSwmOLmZrCK-33" value="" style="edgeStyle=orthogonalEdgeStyle;rounded=0;orthogonalLoop=1;jettySize=auto;html=1;fontSize=15;fontColor=#000000;" edge="1" parent="1" source="t0sURCftIjSwmOLmZrCK-28" target="t0sURCftIjSwmOLmZrCK-32">
          <mxGeometry relative="1" as="geometry" />
        </mxCell>
        <mxCell id="t0sURCftIjSwmOLmZrCK-39" value="" style="edgeStyle=orthogonalEdgeStyle;rounded=0;orthogonalLoop=1;jettySize=auto;html=1;fontSize=15;fontColor=#000000;" edge="1" parent="1" source="t0sURCftIjSwmOLmZrCK-28" target="t0sURCftIjSwmOLmZrCK-38">
          <mxGeometry relative="1" as="geometry" />
        </mxCell>
        <mxCell id="t0sURCftIjSwmOLmZrCK-28" value="获取多个日志项配置&lt;br&gt;etcd.GetConf()" style="whiteSpace=wrap;html=1;rounded=0;" vertex="1" parent="1">
          <mxGeometry x="80" y="730" width="120" height="60" as="geometry" />
        </mxCell>
        <mxCell id="t0sURCftIjSwmOLmZrCK-88" value="" style="edgeStyle=orthogonalEdgeStyle;rounded=0;orthogonalLoop=1;jettySize=auto;html=1;fontSize=10;fontColor=#000000;" edge="1" parent="1" source="t0sURCftIjSwmOLmZrCK-30" target="t0sURCftIjSwmOLmZrCK-87">
          <mxGeometry relative="1" as="geometry" />
        </mxCell>
        <mxCell id="t0sURCftIjSwmOLmZrCK-30" value="&lt;font&gt;&lt;b&gt;&lt;font style=&quot;font-size: 15px&quot;&gt;etcd&lt;/font&gt;&lt;/b&gt;&lt;br style=&quot;font-size: 11px&quot;&gt;&lt;span style=&quot;font-size: 11px ; color: rgb(21 , 21 , 21) ; font-family: &amp;#34;redhattext&amp;#34; , &amp;#34;overpass&amp;#34; , &amp;#34;overpass&amp;#34; , &amp;#34;helvetica&amp;#34; , &amp;#34;arial&amp;#34; , sans-serif ; background-color: rgb(255 , 255 , 255)&quot;&gt;布式统一键值存储，用于分布式系统或计算机集群的共享配置、服务发现和的调度协调&lt;/span&gt;&lt;/font&gt;" style="whiteSpace=wrap;html=1;fillColor=#f8cecc;strokeColor=#b85450;" vertex="1" parent="1">
          <mxGeometry x="280.5" y="100" width="160" height="70" as="geometry" />
        </mxCell>
        <mxCell id="t0sURCftIjSwmOLmZrCK-37" value="" style="edgeStyle=orthogonalEdgeStyle;rounded=0;orthogonalLoop=1;jettySize=auto;html=1;fontSize=15;fontColor=#000000;" edge="1" parent="1" source="t0sURCftIjSwmOLmZrCK-32" target="t0sURCftIjSwmOLmZrCK-36">
          <mxGeometry relative="1" as="geometry" />
        </mxCell>
        <mxCell id="t0sURCftIjSwmOLmZrCK-32" value="&lt;h6 style=&quot;font-size: 1px&quot;&gt;获取json格式配置项&lt;/h6&gt;&lt;h6 style=&quot;font-size: 1px&quot;&gt;clientv3.Client.Get()&lt;/h6&gt;" style="whiteSpace=wrap;html=1;rounded=0;fontSize=1;fontStyle=0;fillColor=#FFFFFF;strokeColor=#82b366;" vertex="1" parent="1">
          <mxGeometry x="240" y="740" width="120" height="40" as="geometry" />
        </mxCell>
        <mxCell id="t0sURCftIjSwmOLmZrCK-36" value="&lt;h6 style=&quot;font-size: 1px&quot;&gt;json解析成数组&lt;br&gt;&lt;/h6&gt;&lt;h6 style=&quot;font-size: 1px&quot;&gt;json.Unmarshal()&lt;/h6&gt;" style="whiteSpace=wrap;html=1;rounded=0;fontSize=1;fontStyle=0;fillColor=#FFFFFF;strokeColor=#82b366;" vertex="1" parent="1">
          <mxGeometry x="440" y="740" width="120" height="40" as="geometry" />
        </mxCell>
        <mxCell id="t0sURCftIjSwmOLmZrCK-41" value="" style="edgeStyle=orthogonalEdgeStyle;rounded=0;orthogonalLoop=1;jettySize=auto;html=1;fontSize=15;fontColor=#000000;" edge="1" parent="1" source="t0sURCftIjSwmOLmZrCK-38" target="t0sURCftIjSwmOLmZrCK-40">
          <mxGeometry relative="1" as="geometry" />
        </mxCell>
        <mxCell id="t0sURCftIjSwmOLmZrCK-43" value="" style="edgeStyle=orthogonalEdgeStyle;rounded=0;orthogonalLoop=1;jettySize=auto;html=1;fontSize=15;fontColor=#000000;" edge="1" parent="1" source="t0sURCftIjSwmOLmZrCK-38" target="t0sURCftIjSwmOLmZrCK-42">
          <mxGeometry relative="1" as="geometry" />
        </mxCell>
        <mxCell id="t0sURCftIjSwmOLmZrCK-38" value="监控etcd指定key变化&lt;br&gt;etcd.WatchConf()" style="whiteSpace=wrap;html=1;rounded=0;" vertex="1" parent="1">
          <mxGeometry x="80" y="840" width="120" height="60" as="geometry" />
        </mxCell>
        <mxCell id="t0sURCftIjSwmOLmZrCK-62" value="" style="edgeStyle=orthogonalEdgeStyle;rounded=0;orthogonalLoop=1;jettySize=auto;html=1;fontSize=1;fontColor=#000000;" edge="1" parent="1" source="t0sURCftIjSwmOLmZrCK-40" target="t0sURCftIjSwmOLmZrCK-61">
          <mxGeometry relative="1" as="geometry" />
        </mxCell>
        <mxCell id="t0sURCftIjSwmOLmZrCK-40" value="为每个日志配置项初始化tail，绑定与日志文件的I/O操作，跟踪指定日志内容变化&lt;br&gt;tailfile.Init()" style="whiteSpace=wrap;html=1;rounded=0;" vertex="1" parent="1">
          <mxGeometry x="80" y="1010" width="120" height="80" as="geometry" />
        </mxCell>
        <mxCell id="t0sURCftIjSwmOLmZrCK-60" value="" style="edgeStyle=orthogonalEdgeStyle;rounded=0;orthogonalLoop=1;jettySize=auto;html=1;fontSize=1;fontColor=#000000;" edge="1" parent="1" source="t0sURCftIjSwmOLmZrCK-42" target="t0sURCftIjSwmOLmZrCK-59">
          <mxGeometry relative="1" as="geometry" />
        </mxCell>
        <mxCell id="t0sURCftIjSwmOLmZrCK-42" value="&lt;h6 style=&quot;font-size: 1px&quot;&gt;监控日志配置项变化&lt;/h6&gt;&lt;h6 style=&quot;font-size: 1px&quot;&gt;clientv3.Client.Watch(key)&lt;/h6&gt;" style="whiteSpace=wrap;html=1;rounded=0;fontSize=1;fontStyle=0;fillColor=#FFFFFF;strokeColor=#82b366;" vertex="1" parent="1">
          <mxGeometry x="240" y="850" width="150" height="40" as="geometry" />
        </mxCell>
        <mxCell id="t0sURCftIjSwmOLmZrCK-56" value="" style="edgeStyle=orthogonalEdgeStyle;rounded=0;orthogonalLoop=1;jettySize=auto;html=1;fontSize=1;fontColor=#000000;" edge="1" parent="1" source="t0sURCftIjSwmOLmZrCK-54">
          <mxGeometry relative="1" as="geometry">
            <mxPoint x="347" y="580" as="targetPoint" />
          </mxGeometry>
        </mxCell>
        <mxCell id="t0sURCftIjSwmOLmZrCK-54" value="&lt;h6 style=&quot;font-size: 1px&quot;&gt;&lt;font style=&quot;font-size: 1px&quot;&gt;初始化通道&lt;/font&gt;&lt;br&gt;&lt;/h6&gt;&lt;h6 style=&quot;font-size: 1px&quot;&gt;&lt;font style=&quot;font-size: 1px&quot;&gt;msgChan = make(chan *..., size)&lt;/font&gt;&lt;/h6&gt;" style="whiteSpace=wrap;html=1;rounded=0;fontSize=1;fontStyle=0;fillColor=#FFFFFF;strokeColor=#82b366;" vertex="1" parent="1">
          <mxGeometry x="246.25" y="520" width="202.5" height="40" as="geometry" />
        </mxCell>
        <mxCell id="t0sURCftIjSwmOLmZrCK-59" value="&lt;h6 style=&quot;font-size: 1px&quot;&gt;启用新配置&lt;/h6&gt;&lt;h6 style=&quot;font-size: 1px&quot;&gt;tailfile.SendNewConf()&lt;/h6&gt;" style="whiteSpace=wrap;html=1;rounded=0;fontSize=1;fontStyle=0;fillColor=#FFFFFF;strokeColor=#82b366;" vertex="1" parent="1">
          <mxGeometry x="240" y="920" width="150" height="40" as="geometry" />
        </mxCell>
        <mxCell id="t0sURCftIjSwmOLmZrCK-64" value="" style="edgeStyle=orthogonalEdgeStyle;rounded=0;orthogonalLoop=1;jettySize=auto;html=1;fontSize=1;fontColor=#000000;" edge="1" parent="1" source="t0sURCftIjSwmOLmZrCK-61" target="t0sURCftIjSwmOLmZrCK-63">
          <mxGeometry relative="1" as="geometry" />
        </mxCell>
        <mxCell id="t0sURCftIjSwmOLmZrCK-61" value="&lt;h6 style=&quot;font-size: 1px&quot;&gt;初始化配置项管理对象&lt;/h6&gt;&lt;h6 style=&quot;font-size: 1px&quot;&gt;ttMgr = &amp;amp;tailTaskMgr{}&lt;/h6&gt;" style="whiteSpace=wrap;html=1;rounded=0;fontSize=1;fontStyle=0;fillColor=#FFFFFF;strokeColor=#82b366;" vertex="1" parent="1">
          <mxGeometry x="235" y="1030" width="150" height="40" as="geometry" />
        </mxCell>
        <mxCell id="t0sURCftIjSwmOLmZrCK-66" value="" style="edgeStyle=orthogonalEdgeStyle;rounded=0;orthogonalLoop=1;jettySize=auto;html=1;fontSize=1;fontColor=#000000;" edge="1" parent="1" source="t0sURCftIjSwmOLmZrCK-63" target="t0sURCftIjSwmOLmZrCK-65">
          <mxGeometry relative="1" as="geometry" />
        </mxCell>
        <mxCell id="t0sURCftIjSwmOLmZrCK-63" value="&lt;h6 style=&quot;font-size: 1px&quot;&gt;为每个配置项创建单独日志收集任务&lt;/h6&gt;&lt;h6 style=&quot;font-size: 1px&quot;&gt;tt = newTailTask()&lt;/h6&gt;" style="whiteSpace=wrap;html=1;rounded=0;fontSize=1;fontStyle=0;fillColor=#FFFFFF;strokeColor=#82b366;" vertex="1" parent="1">
          <mxGeometry x="207.5" y="1120" width="205" height="40" as="geometry" />
        </mxCell>
        <mxCell id="t0sURCftIjSwmOLmZrCK-68" value="" style="edgeStyle=orthogonalEdgeStyle;rounded=0;orthogonalLoop=1;jettySize=auto;html=1;fontSize=1;fontColor=#000000;" edge="1" parent="1" source="t0sURCftIjSwmOLmZrCK-65" target="t0sURCftIjSwmOLmZrCK-67">
          <mxGeometry relative="1" as="geometry" />
        </mxCell>
        <mxCell id="t0sURCftIjSwmOLmZrCK-70" value="" style="edgeStyle=orthogonalEdgeStyle;rounded=0;orthogonalLoop=1;jettySize=auto;html=1;fontSize=1;fontColor=#000000;" edge="1" parent="1" source="t0sURCftIjSwmOLmZrCK-65" target="t0sURCftIjSwmOLmZrCK-69">
          <mxGeometry relative="1" as="geometry" />
        </mxCell>
        <mxCell id="t0sURCftIjSwmOLmZrCK-65" value="&lt;h6 style=&quot;font-size: 1px&quot;&gt;日志收集任务初始化&lt;/h6&gt;&lt;h6 style=&quot;font-size: 1px&quot;&gt;tt.Init()&lt;/h6&gt;" style="whiteSpace=wrap;html=1;rounded=0;fontSize=1;fontStyle=0;fillColor=#FFFFFF;strokeColor=#82b366;" vertex="1" parent="1">
          <mxGeometry x="238.75" y="1200" width="142.5" height="40" as="geometry" />
        </mxCell>
        <mxCell id="t0sURCftIjSwmOLmZrCK-67" value="&lt;h6 style=&quot;font-size: 1px&quot;&gt;日志文件绑定tail跟踪日志内容变化&lt;/h6&gt;&lt;h6 style=&quot;font-size: 1px&quot;&gt;tail.TailFile(path, config)&lt;/h6&gt;" style="whiteSpace=wrap;html=1;rounded=0;fontSize=1;fontStyle=0;fillColor=#FFFFFF;strokeColor=#82b366;" vertex="1" parent="1">
          <mxGeometry x="440" y="1190" width="168.75" height="60" as="geometry" />
        </mxCell>
        <mxCell id="t0sURCftIjSwmOLmZrCK-72" value="" style="edgeStyle=orthogonalEdgeStyle;rounded=0;orthogonalLoop=1;jettySize=auto;html=1;fontSize=1;fontColor=#000000;entryX=0;entryY=0.5;entryDx=0;entryDy=0;" edge="1" parent="1" source="t0sURCftIjSwmOLmZrCK-69" target="t0sURCftIjSwmOLmZrCK-81">
          <mxGeometry relative="1" as="geometry">
            <mxPoint x="461" y="1330" as="targetPoint" />
          </mxGeometry>
        </mxCell>
        <mxCell id="t0sURCftIjSwmOLmZrCK-86" value="" style="edgeStyle=orthogonalEdgeStyle;rounded=0;orthogonalLoop=1;jettySize=auto;html=1;fontSize=10;fontColor=#000000;" edge="1" parent="1" source="t0sURCftIjSwmOLmZrCK-69" target="t0sURCftIjSwmOLmZrCK-85">
          <mxGeometry relative="1" as="geometry" />
        </mxCell>
        <mxCell id="t0sURCftIjSwmOLmZrCK-69" value="&lt;h6 style=&quot;font-size: 1px&quot;&gt;启动协程执行日志收集&lt;/h6&gt;&lt;h6 style=&quot;font-size: 1px&quot;&gt;go tt.run()&lt;/h6&gt;" style="whiteSpace=wrap;html=1;rounded=0;fontSize=1;fontStyle=0;fillColor=#FFFFFF;strokeColor=#82b366;" vertex="1" parent="1">
          <mxGeometry x="238.75" y="1313" width="142.5" height="40" as="geometry" />
        </mxCell>
        <mxCell id="t0sURCftIjSwmOLmZrCK-80" value="读取的日志内容包装成kafka数据类型，传入通道" style="swimlane;fontStyle=0;childLayout=stackLayout;horizontal=1;startSize=26;fillColor=none;horizontalStack=0;resizeParent=1;resizeParentMax=0;resizeLast=0;collapsible=1;marginBottom=0;labelBackgroundColor=#FFFFFF;fontSize=9;fontColor=#000000;strokeColor=#00FF00;" vertex="1" parent="1">
          <mxGeometry x="440" y="1270" width="190" height="102" as="geometry">
            <mxRectangle x="430" y="1450" width="290" height="26" as="alternateBounds" />
          </mxGeometry>
        </mxCell>
        <mxCell id="t0sURCftIjSwmOLmZrCK-82" value="line, ok = *tailTask.tail.Tail.Lines" style="text;strokeColor=none;fillColor=none;align=left;verticalAlign=top;spacingLeft=4;spacingRight=4;overflow=hidden;rotatable=0;points=[[0,0.5],[1,0.5]];portConstraint=eastwest;labelBackgroundColor=#FFFFFF;fontSize=10;fontColor=#000000;" vertex="1" parent="t0sURCftIjSwmOLmZrCK-80">
          <mxGeometry y="26" width="190" height="24" as="geometry" />
        </mxCell>
        <mxCell id="t0sURCftIjSwmOLmZrCK-81" value="msg = &amp;sarama.ProducerMessage{}" style="text;strokeColor=none;fillColor=none;align=left;verticalAlign=top;spacingLeft=4;spacingRight=4;overflow=hidden;rotatable=0;points=[[0,0.5],[1,0.5]];portConstraint=eastwest;labelBackgroundColor=#FFFFFF;fontSize=10;fontColor=#000000;" vertex="1" parent="t0sURCftIjSwmOLmZrCK-80">
          <mxGeometry y="50" width="190" height="26" as="geometry" />
        </mxCell>
        <mxCell id="t0sURCftIjSwmOLmZrCK-83" value="kafka.MsgChan(msg)" style="text;strokeColor=none;fillColor=none;align=left;verticalAlign=top;spacingLeft=4;spacingRight=4;overflow=hidden;rotatable=0;points=[[0,0.5],[1,0.5]];portConstraint=eastwest;labelBackgroundColor=#FFFFFF;fontSize=10;fontColor=#000000;" vertex="1" parent="t0sURCftIjSwmOLmZrCK-80">
          <mxGeometry y="76" width="190" height="26" as="geometry" />
        </mxCell>
        <mxCell id="t0sURCftIjSwmOLmZrCK-95" value="" style="edgeStyle=orthogonalEdgeStyle;rounded=0;orthogonalLoop=1;jettySize=auto;html=1;fontSize=10;fontColor=#000000;entryX=0.014;entryY=0.15;entryDx=0;entryDy=0;entryPerimeter=0;" edge="1" parent="1" source="t0sURCftIjSwmOLmZrCK-85" target="t0sURCftIjSwmOLmZrCK-90">
          <mxGeometry relative="1" as="geometry" />
        </mxCell>
        <mxCell id="t0sURCftIjSwmOLmZrCK-85" value="&lt;h6 style=&quot;font-size: 1px&quot;&gt;启动协程动态调整日志配置项管理&lt;/h6&gt;&lt;h6 style=&quot;font-size: 1px&quot;&gt;go ttMgr.watch()&lt;/h6&gt;" style="whiteSpace=wrap;html=1;rounded=0;fontSize=1;fontStyle=0;fillColor=#FFFFFF;strokeColor=#82b366;" vertex="1" parent="1">
          <mxGeometry x="233.75" y="1486.5" width="151.25" height="47" as="geometry" />
        </mxCell>
        <mxCell id="t0sURCftIjSwmOLmZrCK-87" value="&lt;font&gt;&lt;b&gt;&lt;font style=&quot;font-size: 15px&quot;&gt;tail&lt;/font&gt;&lt;/b&gt;&lt;br style=&quot;font-size: 11px&quot;&gt;&lt;span style=&quot;font-size: 11px ; color: rgb(21 , 21 , 21) ; font-family: &amp;#34;redhattext&amp;#34; , &amp;#34;overpass&amp;#34; , &amp;#34;overpass&amp;#34; , &amp;#34;helvetica&amp;#34; , &amp;#34;arial&amp;#34; , sans-serif ; background-color: rgb(255 , 255 , 255)&quot;&gt;监控文件内容变化&lt;/span&gt;&lt;/font&gt;" style="whiteSpace=wrap;html=1;fillColor=#f8cecc;strokeColor=#b85450;" vertex="1" parent="1">
          <mxGeometry x="470" y="100" width="160" height="70" as="geometry" />
        </mxCell>
        <mxCell id="t0sURCftIjSwmOLmZrCK-90" value="新配置项动态管理(增删)" style="swimlane;fontStyle=0;childLayout=stackLayout;horizontal=1;startSize=30;horizontalStack=0;resizeParent=1;resizeParentMax=0;resizeLast=0;collapsible=1;marginBottom=0;labelBackgroundColor=#FFFFFF;fontSize=10;fontColor=#000000;strokeColor=#00FF00;fillColor=#FFFFFF;" vertex="1" parent="1">
          <mxGeometry x="468.75" y="1440" width="140" height="120" as="geometry" />
        </mxCell>
        <mxCell id="t0sURCftIjSwmOLmZrCK-91" value="newConf := &lt;-ttMgr.confChan" style="text;strokeColor=none;fillColor=none;align=left;verticalAlign=middle;spacingLeft=4;spacingRight=4;overflow=hidden;points=[[0,0.5],[1,0.5]];portConstraint=eastwest;rotatable=0;labelBackgroundColor=#FFFFFF;fontSize=10;fontColor=#000000;" vertex="1" parent="t0sURCftIjSwmOLmZrCK-90">
          <mxGeometry y="30" width="140" height="30" as="geometry" />
        </mxCell>
        <mxCell id="t0sURCftIjSwmOLmZrCK-92" value="for _,conf := range newConf{}" style="text;strokeColor=none;fillColor=none;align=left;verticalAlign=middle;spacingLeft=4;spacingRight=4;overflow=hidden;points=[[0,0.5],[1,0.5]];portConstraint=eastwest;rotatable=0;labelBackgroundColor=#FFFFFF;fontSize=10;fontColor=#000000;" vertex="1" parent="t0sURCftIjSwmOLmZrCK-90">
          <mxGeometry y="60" width="140" height="30" as="geometry" />
        </mxCell>
        <mxCell id="t0sURCftIjSwmOLmZrCK-93" value="Item 3" style="text;strokeColor=none;fillColor=none;align=left;verticalAlign=middle;spacingLeft=4;spacingRight=4;overflow=hidden;points=[[0,0.5],[1,0.5]];portConstraint=eastwest;rotatable=0;labelBackgroundColor=#FFFFFF;fontSize=10;fontColor=#000000;" vertex="1" parent="t0sURCftIjSwmOLmZrCK-90">
          <mxGeometry y="90" width="140" height="30" as="geometry" />
        </mxCell>
        <mxCell id="t0sURCftIjSwmOLmZrCK-96" value="kafka" style="shape=cylinder3;whiteSpace=wrap;html=1;boundedLbl=1;backgroundOutline=1;size=15;labelBackgroundColor=#FFFFFF;fontSize=10;fontColor=#000000;strokeColor=#00FF00;fillColor=#FFFFFF;direction=south;" vertex="1" parent="1">
          <mxGeometry x="350" y="2054" width="80" height="60" as="geometry" />
        </mxCell>
        <mxCell id="t0sURCftIjSwmOLmZrCK-97" value="logAgent" style="rounded=1;whiteSpace=wrap;html=1;labelBackgroundColor=#FFFFFF;fontSize=10;fontColor=#000000;strokeColor=#00FF00;fillColor=#FFFFFF;" vertex="1" parent="1">
          <mxGeometry x="140" y="2014" width="120" height="60" as="geometry" />
        </mxCell>
        <mxCell id="t0sURCftIjSwmOLmZrCK-103" value="" style="endArrow=classic;html=1;rounded=0;fontSize=10;fontColor=#000000;entryX=0.5;entryY=1;entryDx=0;entryDy=0;entryPerimeter=0;exitX=1;exitY=0.5;exitDx=0;exitDy=0;" edge="1" parent="1" source="t0sURCftIjSwmOLmZrCK-97" target="t0sURCftIjSwmOLmZrCK-96">
          <mxGeometry width="50" height="50" relative="1" as="geometry">
            <mxPoint x="260" y="2069" as="sourcePoint" />
            <mxPoint x="310" y="2019" as="targetPoint" />
          </mxGeometry>
        </mxCell>
        <mxCell id="t0sURCftIjSwmOLmZrCK-104" value="sysAgent" style="rounded=1;whiteSpace=wrap;html=1;labelBackgroundColor=#FFFFFF;fontSize=10;fontColor=#000000;strokeColor=#00FF00;fillColor=#FFFFFF;" vertex="1" parent="1">
          <mxGeometry x="140" y="2094" width="120" height="60" as="geometry" />
        </mxCell>
        <mxCell id="t0sURCftIjSwmOLmZrCK-105" value="" style="endArrow=classic;html=1;rounded=0;fontSize=10;fontColor=#000000;entryX=0.5;entryY=1;entryDx=0;entryDy=0;entryPerimeter=0;exitX=1;exitY=0.5;exitDx=0;exitDy=0;" edge="1" parent="1" source="t0sURCftIjSwmOLmZrCK-104" target="t0sURCftIjSwmOLmZrCK-96">
          <mxGeometry width="50" height="50" relative="1" as="geometry">
            <mxPoint x="270" y="2054" as="sourcePoint" />
            <mxPoint x="320" y="2094" as="targetPoint" />
          </mxGeometry>
        </mxCell>
        <mxCell id="t0sURCftIjSwmOLmZrCK-108" value="" style="edgeStyle=orthogonalEdgeStyle;rounded=0;orthogonalLoop=1;jettySize=auto;html=1;fontSize=10;fontColor=#000000;" edge="1" parent="1" source="t0sURCftIjSwmOLmZrCK-106" target="t0sURCftIjSwmOLmZrCK-107">
          <mxGeometry relative="1" as="geometry" />
        </mxCell>
        <mxCell id="t0sURCftIjSwmOLmZrCK-106" value="" style="image;html=1;image=img/lib/clip_art/computers/Netbook_128x128.png;labelBackgroundColor=#FFFFFF;fontSize=10;fontColor=#000000;strokeColor=#00FF00;fillColor=#FFFFFF;" vertex="1" parent="1">
          <mxGeometry x="295" y="1754" width="80" height="80" as="geometry" />
        </mxCell>
        <mxCell id="t0sURCftIjSwmOLmZrCK-107" value="etcd" style="rhombus;whiteSpace=wrap;html=1;labelBackgroundColor=#FFFFFF;fontSize=10;fontColor=#000000;strokeColor=#00FF00;fillColor=#FFFFFF;" vertex="1" parent="1">
          <mxGeometry x="295" y="1868" width="80" height="80" as="geometry" />
        </mxCell>
        <mxCell id="t0sURCftIjSwmOLmZrCK-110" value="" style="endArrow=classic;html=1;rounded=0;fontSize=10;fontColor=#000000;entryX=0.5;entryY=0;entryDx=0;entryDy=0;exitX=0;exitY=1;exitDx=0;exitDy=0;" edge="1" parent="1" source="t0sURCftIjSwmOLmZrCK-107" target="t0sURCftIjSwmOLmZrCK-97">
          <mxGeometry width="50" height="50" relative="1" as="geometry">
            <mxPoint x="270" y="2054" as="sourcePoint" />
            <mxPoint x="320" y="2094" as="targetPoint" />
            <Array as="points" />
          </mxGeometry>
        </mxCell>
        <mxCell id="t0sURCftIjSwmOLmZrCK-111" value="logTransfer" style="rounded=1;whiteSpace=wrap;html=1;labelBackgroundColor=#FFFFFF;fontSize=10;fontColor=#000000;strokeColor=#00FF00;fillColor=#FFFFFF;" vertex="1" parent="1">
          <mxGeometry x="470" y="2054" width="120" height="60" as="geometry" />
        </mxCell>
        <mxCell id="t0sURCftIjSwmOLmZrCK-112" value="" style="endArrow=classic;html=1;rounded=0;fontSize=10;fontColor=#000000;entryX=0;entryY=0.5;entryDx=0;entryDy=0;exitX=0.5;exitY=0;exitDx=0;exitDy=0;exitPerimeter=0;" edge="1" parent="1" source="t0sURCftIjSwmOLmZrCK-96" target="t0sURCftIjSwmOLmZrCK-111">
          <mxGeometry width="50" height="50" relative="1" as="geometry">
            <mxPoint x="270" y="2134" as="sourcePoint" />
            <mxPoint x="320" y="2094" as="targetPoint" />
          </mxGeometry>
        </mxCell>
        <mxCell id="t0sURCftIjSwmOLmZrCK-113" value="ElasticSearch" style="rounded=1;whiteSpace=wrap;html=1;labelBackgroundColor=#FFFFFF;fontSize=10;fontColor=#000000;strokeColor=#00FF00;fillColor=#FFFFFF;" vertex="1" parent="1">
          <mxGeometry x="468.75" y="1948" width="120" height="60" as="geometry" />
        </mxCell>
        <mxCell id="t0sURCftIjSwmOLmZrCK-114" value="" style="endArrow=classic;html=1;rounded=0;fontSize=10;fontColor=#000000;entryX=0.5;entryY=1;entryDx=0;entryDy=0;" edge="1" parent="1" source="t0sURCftIjSwmOLmZrCK-111" target="t0sURCftIjSwmOLmZrCK-113">
          <mxGeometry width="50" height="50" relative="1" as="geometry">
            <mxPoint x="399.99999999999966" y="2093.9999999999995" as="sourcePoint" />
            <mxPoint x="478.75" y="2093.9999999999995" as="targetPoint" />
          </mxGeometry>
        </mxCell>
        <mxCell id="t0sURCftIjSwmOLmZrCK-115" value="kibana" style="rounded=1;whiteSpace=wrap;html=1;labelBackgroundColor=#FFFFFF;fontSize=10;fontColor=#000000;strokeColor=#00FF00;fillColor=#FFFFFF;" vertex="1" parent="1">
          <mxGeometry x="470" y="1860" width="120" height="60" as="geometry" />
        </mxCell>
        <mxCell id="t0sURCftIjSwmOLmZrCK-116" value="" style="endArrow=classic;html=1;rounded=0;fontSize=10;fontColor=#000000;" edge="1" parent="1" source="t0sURCftIjSwmOLmZrCK-113" target="t0sURCftIjSwmOLmZrCK-115">
          <mxGeometry width="50" height="50" relative="1" as="geometry">
            <mxPoint x="509.2434210526319" y="2064" as="sourcePoint" />
            <mxPoint x="538.75" y="2018" as="targetPoint" />
          </mxGeometry>
        </mxCell>
        <mxCell id="t0sURCftIjSwmOLmZrCK-117" value="&lt;font style=&quot;font-size: 14px&quot;&gt;LogCluster日志收集系统架构图&lt;/font&gt;" style="text;html=1;align=center;verticalAlign=middle;resizable=0;points=[];autosize=1;strokeColor=none;fillColor=none;fontSize=10;fontColor=#000000;" vertex="1" parent="1">
          <mxGeometry x="270" y="2200" width="210" height="20" as="geometry" />
        </mxCell>
      </root>
    </mxGraphModel>
  </diagram>
</mxfile>
